<svg xmlns="http://www.w3.org/2000/svg" xmlns:xlink="http://www.w3.org/1999/xlink" width="1024" height="1024" viewBox="0 0 1024 1024" version="1.1"><g id="surface1"><path style=" stroke:none;fill-rule:nonzero;fill:rgb(0%,0%,0%);fill-opacity:1;" d="M 205 2 C 144.199219 10.800781 100.601562 31.199219 64 68 C 39.398438 92.601562 23.800781 117.800781 13 150 C -10.800781 221.199219 -0.199219 308.199219 42 389.199219 C 52.601562 409.800781 78.199219 449.800781 75 441 C 54.800781 385.601562 51 365.398438 51 315 C 51 277.601562 51.398438 273.601562 56.601562 253.398438 C 74.601562 184.199219 114.199219 136 176.800781 107 C 242 77 326.601562 76 409 104.398438 C 440.398438 115.199219 488.199219 139.199219 516 158.199219 C 547 179.398438 594.398438 222.199219 614.199219 247 C 619 253 623.199219 257.398438 623.601562 257 C 624 256.601562 619.601562 247.800781 614 237.601562 C 580.601562 178.199219 535.601562 126.800781 483.199219 88.199219 C 454.800781 67.398438 438.800781 57.398438 412.601562 44.398438 C 358 17 303.199219 2.601562 248 1 C 231 0.601562 211.601562 1 205 2 Z M 205 2 " /><path style=" stroke:none;fill-rule:nonzero;fill:rgb(0%,0%,0%);fill-opacity:1;" d="M 123 336.398438 C 122.601562 337.800781 119.398438 373.199219 116 415 C 112.601562 456.800781 109.601562 493.800781 109 497.199219 C 105.199219 523.199219 92.199219 694 93.398438 704 L 94.601562 716 L 110.199219 716 C 125.199219 716 126 715.800781 126 711.398438 C 126 709 128.398438 681.398438 131 650 C 146.398438 476 156 359.398438 156 347.398438 L 156 334 L 140 334 C 128.800781 334 123.601562 334.800781 123 336.398438 Z M 123 336.398438 " /><path style=" stroke:none;fill-rule:nonzero;fill:rgb(0%,0%,0%);fill-opacity:1;" d="M 296.601562 337 C 288.601562 340.398438 280.601562 352.398438 277 366.398438 C 275 374.199219 268 421.398438 268 427.398438 C 268 427.800781 265.398438 428 262 428 C 258.601562 428 256 429 255.800781 430.398438 C 255.800781 431.800781 254.601562 444 253.199219 457.601562 C 251.800781 471.199219 251.601562 482.800781 252.398438 483.199219 C 253.398438 483.800781 253.601562 487.398438 252.800781 491.199219 C 251.601562 497.601562 252 498 256.800781 498 C 260.199219 498 262 499 262 501.199219 C 262 504.199219 253.800781 600.601562 247.398438 671.601562 C 246 687.398438 245.601562 700.800781 246.601562 701.398438 C 247.398438 701.800781 248 705.199219 247.601562 708.601562 L 247 715 L 259.800781 715.601562 C 266.800781 716 273.398438 715.398438 274.199219 714.601562 C 275.601562 713.199219 294 513 294 500.601562 C 294 499 296.601562 498 300.800781 498 L 307.601562 498 L 309 483.601562 C 309.800781 475.800781 311 460 311.800781 448.800781 L 313 428.199219 L 307 427.601562 C 301.398438 427 301 426.601562 301.601562 419 C 302.398438 409.601562 305 406 311 406 C 315.199219 406 315.601562 404.800781 317.800781 383.398438 C 319 371 320 354.800781 320 347.398438 L 320 334 L 311.601562 334 C 306.800781 334.199219 300.199219 335.398438 296.601562 337 Z M 296.601562 337 " /><path style=" stroke:none;fill-rule:nonzero;fill:rgb(0%,0%,0%);fill-opacity:1;" d="M 427 338.398438 C 426.601562 341 422.800781 381.199219 419 428 C 415 474.800781 408.398438 554 404.199219 604 C 399.800781 654 396.800781 699.800781 397.398438 705.398438 L 398.601562 716 L 427.398438 716 L 428.601562 705.398438 C 429.199219 699.800781 433.800781 636.398438 439.199219 565 C 444.398438 493.398438 449.199219 434.398438 449.800781 433.601562 C 450.398438 432.800781 450.800781 488.601562 450.398438 557.601562 C 450 626.601562 450.398438 690.398438 451 699.398438 L 452.398438 716 L 464.199219 716 C 470.601562 716 476 715.398438 476 714.398438 C 476 713.601562 483.199219 672 491.800781 622 C 500.601562 572 511 511 515.199219 486.601562 C 519.398438 462 523 442.398438 523.398438 442.800781 C 523.800781 443.199219 523.199219 453.199219 522 465.199219 C 520.800781 477.199219 516.800781 520.199219 513 561 C 509 601.601562 504.601562 647.398438 503 662.800781 C 501.199219 678.800781 500.398438 695.800781 501.199219 703.199219 L 502.601562 716 L 516.398438 716 C 525.601562 716 530.398438 715.199219 531 713.398438 C 532.199219 710 560.199219 383.601562 562.601562 346.398438 L 563.199219 333.800781 L 539.199219 334.398438 L 515.199219 335 L 513.601562 343 C 513 347.398438 510.800781 359 509 369 C 507.199219 378.800781 500 420.800781 492.800781 462 C 485.800781 503.199219 479.199219 539.199219 478.199219 542 C 477 545.199219 476.199219 507 476.199219 440.398438 L 476 334 L 452 334 C 428.800781 334 428 334.199219 427 338.398438 Z M 427 338.398438 " /><path style=" stroke:none;fill-rule:nonzero;fill:rgb(0%,0%,0%);fill-opacity:1;" d="M 762 351.398438 C 762 353.398438 760.601562 370.199219 759 389 C 757.398438 407.601562 756 424.199219 756 425.398438 C 756 427 753.398438 428 750 428 C 745 428 744 428.800781 743 434.398438 C 740.800781 448 738.398438 483 739.800781 483.601562 C 740.601562 483.800781 740.800781 487.199219 740.398438 490.800781 C 739.800781 496.800781 740.199219 497.800781 744.199219 498.398438 C 750 499.199219 750 495.398438 741.800781 592.800781 C 736.601562 653.601562 736 667.398438 737.800781 683.199219 C 741 713.199219 747.398438 721.601562 765 719 C 769.601562 718.199219 774.398438 717 775.398438 716.398438 C 777.601562 715 781 689.601562 782.601562 661.398438 L 783.601562 648 L 778 648 C 773.601562 648 772.199219 646.800781 771.199219 642.800781 C 770 638.398438 777.800781 531.800781 781.199219 506.398438 C 782.199219 498.398438 782.601562 498 789 498 C 797 498 796.800781 498.398438 800 463 C 803.199219 428.601562 803 428 796.199219 428 C 792.800781 428 789.800781 427.199219 789 426.199219 C 788.398438 425.199219 789.398438 407.601562 791 387 C 792.601562 366.398438 794 349.398438 794 348.800781 C 794 348.398438 786.800781 348 778 348 C 764.199219 348 762 348.398438 762 351.398438 Z M 762 351.398438 " /><path style=" stroke:none;fill-rule:nonzero;fill:rgb(0%,0%,0%);fill-opacity:1;" d="M 996.601562 402 C 982.199219 407.800781 974.800781 460.800781 985 485.199219 C 999.398438 519.601562 1022 498.398438 1022 450.800781 C 1022 429.199219 1017.800781 413.601562 1010 405.601562 C 1003.800781 399.601562 1003.199219 399.398438 996.601562 402 Z M 1008.601562 411.601562 C 1024.601562 429.199219 1021.800781 486.601562 1004.601562 494.601562 C 998.199219 497.398438 991.199219 490.800781 986.800781 477.601562 C 982 463.199219 983.601562 430.199219 989.601562 418.601562 C 995.398438 407.398438 1002.601562 404.800781 1008.601562 411.601562 Z M 1008.601562 411.601562 " /><path style=" stroke:none;fill-rule:nonzero;fill:rgb(0%,0%,0%);fill-opacity:1;" d="M 992 451 C 992 477.199219 992.398438 482 995 482 C 997.398438 482 998 479.398438 998 470 C 998 451 1002.199219 455 1004.398438 476 C 1004.800781 478.800781 1006.398438 481.199219 1008.398438 481.601562 C 1011.199219 482.199219 1011.601562 481 1010.800781 474.601562 C 1010.199219 470.398438 1008.800781 464.199219 1007.601562 460.601562 C 1006.398438 456.199219 1006.398438 452.800781 1007.800781 450.199219 C 1010.601562 445.199219 1010.601562 429 1008 423.800781 C 1006.398438 421.199219 1003.800781 420 999 420 L 992 420 Z M 1006 438.601562 C 1006 441.601562 1002 448 1000 448 C 997.800781 448 997.199219 433.398438 999.398438 431.199219 C 1001 429.800781 1006 435.398438 1006 438.601562 Z M 1006 438.601562 " /><path style=" stroke:none;fill-rule:nonzero;fill:rgb(0%,0%,0%);fill-opacity:1;" d="M 210.601562 425.601562 C 207.398438 428.800781 202.601562 436.398438 199.601562 442.199219 L 194 453 L 194 428 L 166.199219 428 L 165 438.398438 C 164.398438 444.199219 161.601562 475 158.800781 507 C 156 538.800781 151.199219 595 148 631.800781 C 144.199219 675.398438 142.800781 699.601562 144 701 C 145.199219 702.398438 145.398438 706.199219 144.800781 709.800781 L 143.601562 716 L 157.800781 716 C 170.800781 716 172 715.601562 172.800781 711.398438 C 173.398438 709 175.601562 685 177.800781 658 C 188.601562 529.800781 190.199219 513 193.601562 506 C 197.800781 497.398438 205.199219 495.398438 207 502.398438 C 208 506.398438 201.800781 592.601562 199 612 C 195.800781 635 192.199219 692.601562 193.199219 703.398438 L 194.601562 716 L 208.199219 716 C 215.800781 716 222 715.398438 222 714.398438 C 222 713.601562 223.398438 698.601562 225 681 C 243 482.601562 244.398438 453.601562 236.601562 436 C 232 425.800781 229.199219 422.800781 221.398438 421 C 217 419.800781 215 420.601562 210.601562 425.601562 Z M 210.601562 425.601562 " /><path style=" stroke:none;fill-rule:nonzero;fill:rgb(0%,0%,0%);fill-opacity:1;" d="M 355.601562 422 C 337.601562 427.601562 326.398438 445.800781 319.199219 480.601562 C 315.601562 497.800781 304 627.601562 304 650.199219 C 304 699 316 724 339.398438 724 C 363.800781 724 380 697.800781 385.800781 648 C 387.601562 634.398438 394.398438 553.398438 398.601562 499 C 400 481.398438 396.199219 451.800781 391.199219 440.800781 C 384 425.199219 369.601562 417.601562 355.601562 422 Z M 365.601562 503.601562 C 366.601562 521.398438 356.199219 636 352.800781 645.398438 C 350.199219 652.398438 348.800781 654 344.800781 654 C 335.601562 654 335.199219 648.199219 340 588 C 346.800781 500.800781 348.800781 491.199219 359.601562 492.398438 C 364.601562 493 365 493.800781 365.601562 503.601562 Z M 365.601562 503.601562 " /><path style=" stroke:none;fill-rule:nonzero;fill:rgb(0%,0%,0%);fill-opacity:1;" d="M 599.398438 423 C 590 426.199219 583.199219 432.398438 577 443 C 567 460.398438 559 498.199219 561.398438 517.800781 L 562.601562 528 L 576.199219 528 C 583.800781 528 590 527.398438 590 526.398438 C 590 520 594.800781 498.398438 597 493.800781 C 600.398438 487.398438 607 484.601562 611 488 C 614.800781 491.199219 615 509.800781 611.199219 518.601562 C 608.800781 524.601562 595.800781 538 592.199219 538 C 588.199219 538 567.800781 561 563.199219 570.800781 C 551.199219 596 544.199219 646 548 679.398438 C 550.601562 703.800781 553.398438 712.800781 559.601562 719 C 570.199219 729.601562 583.398438 723.601562 594 703.199219 C 599 694.199219 601.601562 691.601562 601.398438 696.398438 C 601.398438 697.800781 601.601562 702.800781 601.601562 707.398438 L 602 716 L 629.601562 716 L 630.800781 698.398438 C 631.601562 688.800781 635.800781 636.800781 640.199219 583 C 648.601562 481.199219 649 463 642.800781 443.800781 C 639.199219 432.398438 630.800781 424.199219 620.800781 421.800781 C 610.601562 419.601562 608.398438 419.601562 599.398438 423 Z M 605.601562 609 C 603.199219 640.800781 598.199219 654 589 654 C 579 654 577.398438 629 586.199219 611.398438 C 589.601562 604.398438 606 585 607 586.601562 C 607.199219 586.800781 606.601562 596.800781 605.601562 609 Z M 605.601562 609 " /><path style=" stroke:none;fill-rule:nonzero;fill:rgb(0%,0%,0%);fill-opacity:1;" d="M 692.800781 421.398438 C 685 423 672.398438 435.800781 666.199219 448.601562 C 655.800781 469.601562 653.199219 485 653 522 C 653 570.398438 656.800781 582.398438 681.199219 612.398438 L 694.398438 628.800781 L 693.199219 638.800781 C 692 650.199219 686.601562 658.601562 680.398438 659.601562 C 674.601562 660.398438 672.199219 654 671.601562 635 L 671 620 L 642.398438 620 L 640.800781 635.398438 C 638.800781 657.601562 643 692.199219 649.199219 705.398438 C 655 717.601562 664.398438 724 676.199219 724 C 686.601562 724 694 720 702.800781 709.800781 C 716.601562 693.601562 723.601562 665.800781 725.398438 622 C 727 577.199219 722.398438 560.398438 701.199219 535.601562 C 683.800781 515 680.601562 504.601562 688 492.398438 C 691.199219 487 693.199219 485.800781 697.601562 486.398438 C 702.800781 487 703 487.601562 704.601562 503 C 705.398438 511.800781 706.398438 520.199219 707 521.601562 C 707.601562 523.398438 711.601562 524 720.398438 523.601562 L 733 523 L 734.398438 506 C 737.601562 470.398438 729.601562 435.800781 716.398438 426.199219 C 710.601562 422 699.800781 419.800781 692.800781 421.398438 Z M 692.800781 421.398438 " /><path style=" stroke:none;fill-rule:nonzero;fill:rgb(0%,0%,0%);fill-opacity:1;" d="M 838.800781 422.800781 C 826 428.601562 812.398438 454 807.199219 482 C 801.601562 511.199219 791.398438 638.199219 792.800781 662 C 795.199219 705.199219 805.800781 724 827.800781 724 C 855.800781 724 873.199219 690.601562 877.199219 629.398438 L 878.601562 608 L 863.199219 608 C 854.800781 608 848 608.199219 848 608.601562 C 848 608.800781 847 616.601562 846 625.800781 C 843.199219 647.199219 839.601562 654.398438 832.398438 653.601562 C 828.199219 653.199219 826.800781 651.601562 825.601562 646 C 824 639.398438 825 615.601562 827.199219 599.398438 L 828.398438 592 L 855.199219 592 C 875.199219 592 882 591.398438 882 589.398438 C 882 588.199219 883.800781 566.800781 886 542 C 888.199219 517.398438 890 489.800781 890 481 C 890 454 883.398438 434.199219 871.601562 425.398438 C 864.601562 420.199219 847.398438 418.800781 838.800781 422.800781 Z M 856.199219 490.199219 C 857.601562 493 858 499.800781 857 510.199219 L 855.601562 526 L 833.398438 526 L 834.601562 516.398438 C 836.398438 503.199219 839.601562 492.601562 843.199219 489 C 847.601562 484.800781 853.398438 485.199219 856.199219 490.199219 Z M 856.199219 490.199219 " /><path style=" stroke:none;fill-rule:nonzero;fill:rgb(0%,0%,0%);fill-opacity:1;" d="M 952.199219 423.800781 C 947.398438 428.601562 942.800781 437.199219 937.800781 450.800781 L 934 461 L 935 444.398438 L 936 428 L 921 428 C 908 428 906 428.398438 906 431.398438 C 906 433.398438 901 493 895 564 C 888.398438 643.199219 884.601562 697.398438 885.398438 704.601562 L 886.601562 716 L 913.398438 716 L 914.601562 704.398438 C 915.398438 698 918.601562 660.398438 922 620.800781 C 929.398438 531.199219 929.199219 533.398438 935.398438 525.800781 C 939.601562 521 941.800781 519.800781 946.398438 520.398438 C 949.601562 521 952.601562 520.800781 953 520 C 953.398438 519.199219 955.199219 501.601562 956.800781 480.800781 C 958.601562 460 960.398438 437.800781 961 431.398438 C 962.398438 418.800781 959.601562 416.398438 952.199219 423.800781 Z M 952.199219 423.800781 " /><path style=" stroke:none;fill-rule:nonzero;fill:rgb(0%,0%,0%);fill-opacity:1;" d="M 949 595 C 949.800781 597.199219 952.601562 604.800781 955.199219 612 C 966 642.398438 974 686.398438 974 716.601562 C 974 832.800781 900 919.398438 786 937 C 763.800781 940.398438 720 940.800781 696.199219 938 C 590.800781 924.601562 477.601562 858.199219 403.398438 766 C 393.800781 754 411.398438 787.601562 427.398438 812 C 460.601562 862.199219 498.398438 901.800781 548 938.199219 C 624.800781 994.601562 721.601562 1027 802.199219 1023.398438 C 918.398438 1018 1000.601562 950 1019 844.398438 C 1023.199219 820.199219 1022.800781 779.199219 1018 751.398438 C 1010.800781 708.800781 991 657.601562 966 617.398438 C 954.601562 598.800781 946.800781 588.398438 949 595 Z M 949 595 " /></g></svg>